#define close_width  14
#define close_height 10
static unsigned char close_bits[] = {
 0xf8,0xff,0xfc,0xff,0xfe,0xff,0xff,0xff,0xff,0xff,0xff,0xff,
 0x0f,0xfc,0xff,0xdf,0xff,0xcf,0xff,0xc7};
