#define bullet_width  9
#define bullet_height 9
static unsigned char bullet_bits[] = {
 0x00,0xfe,0x00,0xfe,0x10,0xfe,0x38,0xfe,0x6c,0xfe,0x38,0xfe,
 0x10,0xfe,0x00,0xfe,0x00,0xfe};
