#define close_width  10
#define close_height 10
static unsigned char close_bits[] = {
 0x30,0xfc,0x48,0xfc,0x84,0xfc,0x02,0xfd,0x01,0xfe,0x01,0xfe,
 0x02,0xfd,0x84,0xfc,0x48,0xfc,0x30,0xfc};
