#define close_width  8
#define close_height 8
static unsigned char close_bits[] = {
 0xff,0x81,0x81,0x81,0x81,0x01,0x01,0x1f};
